<svg width="1280" height="780" viewBox="0 0 1280 780" fill="none" xmlns="http://www.w3.org/2000/svg">
<path d="M1167.52 186.988C1167.59 190.318 1167.63 193.654 1167.63 196.997L1166.63 196.999C1166.63 197.332 1166.64 197.666 1166.64 198C1166.64 198.334 1166.63 198.668 1166.63 199.001L1167.63 199.003C1167.63 202.346 1167.59 205.683 1167.52 209.012L1166.52 208.992C1166.51 209.657 1166.5 210.321 1166.48 210.985L1167.48 211.009C1167.4 214.336 1167.29 217.655 1167.15 220.968L1166.16 220.926C1166.13 221.587 1166.1 222.248 1166.07 222.909L1167.07 222.954C1166.92 226.282 1166.73 229.603 1166.52 232.916L1165.52 232.852C1165.48 233.516 1165.44 234.181 1165.39 234.845L1166.39 234.912C1166.17 238.238 1165.91 241.556 1165.63 244.866L1164.63 244.781L1164.58 245.418C1164.54 245.866 1164.5 246.314 1164.46 246.762L1165.45 246.852C1165.16 250.159 1164.83 253.458 1164.47 256.749L1163.48 256.641C1163.41 257.304 1163.33 257.966 1163.26 258.628L1164.25 258.739C1163.88 262.056 1163.48 265.364 1163.05 268.664L1162.06 268.534C1161.97 269.193 1161.88 269.851 1161.8 270.509L1162.79 270.643C1162.34 273.939 1161.87 277.226 1161.37 280.505L1160.38 280.353C1160.28 281.008 1160.18 281.662 1160.07 282.316L1161.06 282.471C1160.55 285.763 1160 289.045 1159.42 292.319L1158.44 292.145C1158.32 292.8 1158.21 293.455 1158.09 294.109L1159.07 294.286C1158.48 297.563 1157.86 300.831 1157.21 304.089L1156.23 303.894C1156.1 304.544 1155.97 305.194 1155.84 305.844L1156.82 306.043C1156.16 309.301 1155.47 312.549 1154.75 315.788L1153.78 315.571C1153.63 316.22 1153.49 316.87 1153.34 317.518L1154.31 317.739C1153.58 320.989 1152.82 324.229 1152.02 327.459L1151.05 327.221C1150.89 327.865 1150.73 328.51 1150.57 329.154L1151.54 329.396C1150.74 332.621 1149.91 335.836 1149.04 339.041L1148.08 338.781C1147.91 339.421 1147.73 340.06 1147.56 340.699L1148.52 340.962C1147.65 344.177 1146.74 347.38 1145.81 350.573L1144.85 350.292C1144.66 350.929 1144.47 351.566 1144.28 352.203L1145.24 352.488C1144.29 355.677 1143.32 358.855 1142.31 362.022L1141.36 361.72C1141.16 362.352 1140.96 362.984 1140.76 363.615L1141.71 363.921C1140.69 367.088 1139.65 370.244 1138.57 373.389L1137.63 373.066C1137.41 373.695 1137.2 374.323 1136.98 374.951L1137.92 375.278C1136.84 378.424 1135.72 381.558 1134.58 384.68L1133.64 384.336C1133.52 384.674 1133.39 385.012 1133.27 385.35C1133.16 385.635 1133.06 385.919 1132.95 386.204L1133.89 386.551C1132.74 389.669 1131.56 392.774 1130.35 395.866L1129.42 395.502C1129.17 396.121 1128.93 396.74 1128.69 397.358L1129.62 397.725C1128.39 400.821 1127.14 403.904 1125.86 406.974L1124.94 406.59C1124.68 407.203 1124.43 407.815 1124.17 408.427L1125.09 408.815C1123.8 411.88 1122.49 414.933 1121.14 417.972L1120.23 417.568C1119.96 418.174 1119.69 418.78 1119.42 419.386L1120.33 419.794C1118.98 422.832 1117.59 425.857 1116.18 428.868L1115.28 428.444C1115 429.045 1114.71 429.646 1114.43 430.247L1115.33 430.674C1113.91 433.681 1112.47 436.675 1110.99 439.654L1110.09 439.211C1109.8 439.806 1109.5 440.4 1109.21 440.994L1110.1 441.44C1108.62 444.416 1107.11 447.377 1105.57 450.324L1104.68 449.861L1104.39 450.416C1104.18 450.82 1103.97 451.223 1103.76 451.626L1104.64 452.091C1103.09 455.035 1101.52 457.964 1099.92 460.878L1099.04 460.396C1098.72 460.978 1098.4 461.56 1098.08 462.14L1098.95 462.625C1097.34 465.534 1095.7 468.428 1094.04 471.307L1093.17 470.807C1092.84 471.382 1092.51 471.956 1092.18 472.53L1093.04 473.033C1091.37 475.907 1089.67 478.765 1087.94 481.609L1087.09 481.091C1086.75 481.659 1086.4 482.226 1086.05 482.792L1086.91 483.314C1085.17 486.151 1083.42 488.974 1081.63 491.781L1080.79 491.245C1080.43 491.805 1080.07 492.365 1079.72 492.924L1080.56 493.463C1078.77 496.263 1076.95 499.048 1075.11 501.816L1074.27 501.262C1073.91 501.815 1073.54 502.367 1073.17 502.918L1074 503.475C1072.15 506.237 1070.27 508.983 1068.37 511.713L1067.55 511.142C1067.17 511.687 1066.79 512.231 1066.41 512.775L1067.23 513.349C1065.32 516.072 1063.39 518.778 1061.43 521.469L1060.62 520.88C1060.23 521.417 1059.84 521.953 1059.45 522.488L1060.26 523.079C1058.29 525.761 1056.3 528.426 1054.29 531.074L1053.5 530.469C1053.09 530.998 1052.69 531.526 1052.29 532.053L1053.08 532.661C1051.06 535.303 1049.02 537.928 1046.95 540.536L1046.17 539.914C1045.76 540.435 1045.34 540.955 1044.93 541.474L1045.71 542.098C1043.64 544.695 1041.54 547.274 1039.42 549.837L1038.65 549.2C1038.23 549.712 1037.81 550.222 1037.38 550.733L1038.15 551.372C1036.02 553.928 1033.87 556.466 1031.7 558.987L1030.94 558.334C1030.51 558.838 1030.08 559.34 1029.64 559.842L1030.4 560.497C1028.22 563.008 1026.02 565.501 1023.8 567.976L1023.05 567.308C1022.61 567.802 1022.16 568.295 1021.72 568.787L1022.46 569.458C1020.23 571.924 1017.98 574.371 1015.71 576.801L1014.98 576.118C1014.53 576.603 1014.07 577.088 1013.62 577.571L1014.35 578.257C1012.07 580.679 1009.76 583.082 1007.44 585.468L1006.73 584.77C1006.26 585.245 1005.8 585.719 1005.34 586.193L1006.05 586.893C1003.72 589.265 1001.38 591.619 999.012 593.955L998.309 593.243C997.837 593.709 997.364 594.175 996.889 594.64L997.589 595.354C995.214 597.682 992.818 599.991 990.402 602.281L989.714 601.555C989.232 602.013 988.749 602.469 988.264 602.925L988.95 603.653C986.532 605.93 984.094 608.187 981.636 610.426L980.963 609.687C980.472 610.133 979.981 610.579 979.489 611.025L980.159 611.766C977.694 613.996 975.21 616.207 972.705 618.399L972.047 617.646C971.547 618.084 971.046 618.52 970.544 618.956L971.2 619.711C968.691 621.892 966.163 624.053 963.616 626.194L962.972 625.429C962.465 625.856 961.956 626.281 961.447 626.707L962.088 627.474C959.538 629.603 956.969 631.713 954.382 633.803L953.753 633.025C953.237 633.442 952.719 633.858 952.201 634.274L952.827 635.054C950.232 637.136 947.617 639.197 944.985 641.239L944.372 640.449C944.157 640.616 943.941 640.783 943.725 640.949C943.416 641.189 943.107 641.427 942.797 641.666L943.407 642.458C940.777 644.484 938.129 646.489 935.463 648.474L934.866 647.672C934.334 648.069 933.801 648.464 933.267 648.859L933.862 649.663C931.188 651.64 928.497 653.597 925.788 655.533L925.207 654.719C924.935 654.914 924.662 655.108 924.39 655.302C924.121 655.494 923.852 655.685 923.582 655.876L924.161 656.692C921.452 658.614 918.726 660.516 915.983 662.397L915.417 661.572C914.87 661.947 914.322 662.322 913.774 662.695L914.337 663.521C911.591 665.391 908.827 667.24 906.047 669.068L905.498 668.233C904.942 668.598 904.387 668.962 903.83 669.325L904.377 670.162C901.592 671.981 898.789 673.778 895.971 675.554L895.438 674.708C894.877 675.061 894.316 675.413 893.754 675.765L894.284 676.613C891.47 678.373 888.64 680.112 885.793 681.83L885.276 680.974C884.708 681.317 884.139 681.659 883.569 682L884.083 682.858C881.23 684.567 878.361 686.255 875.476 687.92L874.976 687.054C874.399 687.387 873.823 687.719 873.245 688.05L873.743 688.917C870.863 690.568 867.968 692.196 865.058 693.803L864.574 692.927C863.994 693.248 863.413 693.568 862.831 693.886L863.311 694.763C860.397 696.36 857.468 697.935 854.523 699.488L854.057 698.603C853.469 698.913 852.88 699.222 852.291 699.53L852.755 700.417C849.809 701.958 846.848 703.477 843.873 704.974L843.424 704.08C842.832 704.378 842.239 704.675 841.646 704.971L842.093 705.866C839.123 707.348 836.138 708.808 833.14 710.246L832.707 709.344C832.108 709.631 831.509 709.917 830.909 710.203L831.339 711.106C828.334 712.534 825.315 713.94 822.283 715.324L821.868 714.414C821.262 714.69 820.656 714.966 820.049 715.24L820.461 716.151C817.44 717.518 814.405 718.862 811.357 720.183L810.959 719.266C810.35 719.529 809.741 719.792 809.131 720.054L809.526 720.973C806.473 722.285 803.406 723.574 800.326 724.84L799.946 723.915C799.331 724.168 798.715 724.42 798.099 724.671L798.476 725.597C795.399 726.851 792.308 728.081 789.205 729.289L788.842 728.357C788.225 728.597 787.607 728.836 786.989 729.075L787.348 730.008C784.252 731.201 781.142 732.372 778.02 733.52L777.675 732.581C777.052 732.81 776.428 733.038 775.803 733.266L776.145 734.205C773.018 735.343 769.879 736.458 766.727 737.549L766.4 736.604C765.771 736.822 765.142 737.039 764.512 737.254L764.836 738.2C761.701 739.275 758.554 740.326 755.396 741.353L755.086 740.402C754.456 740.608 753.824 740.812 753.193 741.015L753.499 741.967C750.336 742.985 747.161 743.98 743.974 744.951L743.683 743.994C743.046 744.188 742.409 744.381 741.772 744.573L742.061 745.53C738.88 746.489 735.687 747.423 732.484 748.334L732.211 747.372C731.573 747.553 730.936 747.733 730.298 747.912L730.569 748.875C727.374 749.772 724.169 750.646 720.953 751.496L720.698 750.529C720.055 750.698 719.413 750.867 718.77 751.035L719.022 752.002C715.802 752.843 712.571 753.659 709.329 754.45L709.092 753.479C708.445 753.637 707.798 753.794 707.15 753.95L707.384 754.922C704.164 755.698 700.934 756.45 697.694 757.178L697.475 756.203C696.828 756.348 696.181 756.492 695.533 756.636L695.749 757.612C692.505 758.33 689.251 759.024 685.988 759.694L685.787 758.715C685.507 758.772 685.228 758.829 684.948 758.886C684.576 758.962 684.203 759.038 683.83 759.113L684.028 760.093C680.771 760.751 677.504 761.385 674.228 761.994L674.045 761.011C673.395 761.132 672.744 761.252 672.092 761.371L672.272 762.355C669.01 762.951 665.739 763.523 662.459 764.071L662.294 763.084C661.885 763.153 661.476 763.221 661.066 763.288L660.328 763.409L660.49 764.396C657.206 764.934 653.913 765.447 650.611 765.936L650.465 764.947C649.806 765.044 649.146 765.141 648.486 765.236L648.629 766.226C645.352 766.701 642.066 767.151 638.771 767.577L638.643 766.586C637.986 766.671 637.328 766.755 636.67 766.838L636.796 767.83C633.501 768.245 630.198 768.637 626.888 769.003L626.778 768.009C626.46 768.044 626.143 768.079 625.825 768.114C625.481 768.151 625.137 768.189 624.793 768.226L624.9 769.22C621.593 769.576 618.277 769.907 614.954 770.213L614.862 769.218C614.503 769.251 614.144 769.284 613.785 769.316C613.485 769.343 613.186 769.37 612.886 769.397L612.975 770.393C609.676 770.687 606.369 770.956 603.054 771.201L602.981 770.204C602.319 770.253 601.657 770.301 600.994 770.348L601.065 771.345C597.747 771.58 594.423 771.791 591.091 771.976L591.035 770.978C590.37 771.015 589.704 771.051 589.038 771.086L589.091 772.084C585.78 772.258 582.463 772.408 579.138 772.533L579.101 771.533C578.44 771.558 577.778 771.582 577.116 771.605L577.15 772.604C573.836 772.719 570.514 772.808 567.186 772.873L567.166 771.873C566.502 771.886 565.837 771.898 565.172 771.909L565.188 772.909C561.858 772.964 558.521 772.994 555.177 772.999L555.176 771.999C554.842 772 554.508 772 554.174 772C553.84 772 553.506 772 553.172 771.999L553.171 772.999C549.827 772.994 546.49 772.964 543.159 772.909L543.176 771.909C542.511 771.898 541.846 771.886 541.181 771.873L541.162 772.873C537.834 772.808 534.512 772.719 531.197 772.604L531.232 771.605C530.57 771.582 529.908 771.558 529.247 771.533L529.209 772.533C525.885 772.408 522.567 772.258 519.257 772.084L519.309 771.086C518.643 771.051 517.978 771.015 517.312 770.978L517.257 771.976C513.925 771.791 510.6 771.58 507.283 771.345L507.354 770.348L506.789 770.307C506.315 770.274 505.841 770.239 505.367 770.204L505.293 771.201C501.979 770.956 498.672 770.687 495.373 770.393L495.461 769.397C494.803 769.338 494.144 769.278 493.486 769.218L493.394 770.213C490.071 769.907 486.755 769.576 483.448 769.22L483.555 768.226C482.893 768.154 482.231 768.082 481.57 768.009L481.46 769.003C478.149 768.636 474.846 768.245 471.552 767.83L471.677 766.838C471.019 766.755 470.362 766.671 469.705 766.585L469.576 767.577C466.282 767.151 462.996 766.701 459.718 766.226L459.862 765.236C459.202 765.141 458.542 765.044 457.883 764.947L457.737 765.936C454.435 765.447 451.142 764.934 447.858 764.396L448.02 763.409C447.364 763.302 446.709 763.194 446.054 763.084L445.889 764.071C442.609 763.523 439.338 762.951 436.076 762.355L436.255 761.371C435.604 761.252 434.953 761.132 434.302 761.011L434.12 761.994C430.843 761.385 427.576 760.751 424.319 760.093L424.517 759.113C423.865 758.981 423.213 758.848 422.561 758.715L422.36 759.694C419.096 759.024 415.842 758.33 412.598 757.612L412.815 756.636C412.383 756.54 411.951 756.444 411.52 756.348L410.872 756.203L410.653 757.178C407.413 756.45 404.183 755.698 400.964 754.922L401.198 753.95C400.826 753.861 400.454 753.771 400.082 753.68C399.807 753.613 399.531 753.546 399.256 753.479L399.018 754.45C395.777 753.658 392.546 752.843 389.326 752.002L389.578 751.035C388.935 750.867 388.292 750.698 387.65 750.529L387.395 751.496C384.179 750.646 380.973 749.772 377.779 748.875L378.049 747.912C377.412 747.733 376.774 747.553 376.137 747.372L375.864 748.334C372.66 747.423 369.468 746.489 366.287 745.53L366.575 744.573C366.284 744.485 365.993 744.397 365.702 744.309C365.356 744.204 365.011 744.099 364.665 743.994L364.374 744.951C361.187 743.98 358.012 742.985 354.849 741.967L355.155 741.015C354.523 740.812 353.892 740.608 353.261 740.402L352.952 741.353C349.793 740.326 346.646 739.275 343.511 738.2L343.835 737.254C343.206 737.038 342.576 736.822 341.948 736.604L341.621 737.549C338.469 736.458 335.329 735.343 332.202 734.205L332.544 733.265C332.148 733.121 331.753 732.977 331.357 732.832C331.129 732.748 330.901 732.665 330.673 732.581L330.328 733.52C327.206 732.372 324.096 731.201 320.999 730.008L321.359 729.075C320.741 728.836 320.123 728.597 319.505 728.357L319.143 729.289C316.039 728.081 312.949 726.85 309.871 725.597L310.249 724.671C309.632 724.42 309.017 724.168 308.402 723.915L308.022 724.84C304.942 723.574 301.875 722.285 298.822 720.973L299.216 720.054C298.607 719.792 297.998 719.529 297.389 719.266L296.991 720.183C293.943 718.862 290.908 717.518 287.886 716.151L288.299 715.24C287.692 714.966 287.086 714.69 286.48 714.414L286.065 715.324C283.032 713.94 280.014 712.534 277.009 711.106L277.439 710.203C277.081 710.033 276.724 709.862 276.367 709.692C276.125 709.576 275.883 709.46 275.641 709.344L275.208 710.246C272.209 708.808 269.225 707.348 266.255 705.866L266.702 704.971L266.175 704.708C265.758 704.499 265.341 704.29 264.924 704.08L264.475 704.974C261.499 703.477 258.539 701.958 255.593 700.417L256.057 699.53C255.468 699.222 254.879 698.913 254.291 698.603L253.825 699.488C250.88 697.935 247.951 696.36 245.037 694.764L245.517 693.887C244.935 693.568 244.354 693.248 243.773 692.927L243.29 693.803C240.38 692.196 237.485 690.568 234.605 688.917L235.103 688.05C234.525 687.719 233.948 687.387 233.372 687.054L232.872 687.921C229.987 686.255 227.118 684.567 224.265 682.858L224.779 682C224.209 681.659 223.64 681.317 223.072 680.974L222.555 681.83C219.708 680.112 216.878 678.373 214.064 676.613L214.594 675.765C214.032 675.413 213.471 675.061 212.91 674.708L212.377 675.554C209.559 673.778 206.757 671.981 203.971 670.163L204.518 669.325C203.961 668.962 203.406 668.598 202.85 668.233L202.301 669.068C199.521 667.24 196.757 665.391 194.011 663.522L194.574 662.695C194.026 662.322 193.478 661.948 192.931 661.573L192.366 662.397C189.622 660.516 186.896 658.614 184.187 656.692L184.766 655.876C184.444 655.648 184.122 655.419 183.801 655.19C183.581 655.033 183.361 654.876 183.141 654.719L182.56 655.533C179.851 653.597 177.16 651.64 174.486 649.663L175.081 648.859C174.547 648.465 174.014 648.069 173.482 647.673L172.885 648.475C170.219 646.49 167.571 644.484 164.941 642.459L165.551 641.666C165.364 641.522 165.177 641.378 164.989 641.233C164.651 640.972 164.313 640.711 163.976 640.449L163.363 641.239C160.731 639.198 158.117 637.136 155.521 635.054L156.147 634.274C155.629 633.859 155.112 633.442 154.595 633.025L153.967 633.803C151.379 631.713 148.81 629.604 146.26 627.475L146.901 626.707C146.654 626.501 146.408 626.295 146.161 626.088C145.899 625.869 145.638 625.649 145.376 625.429L144.732 626.195C142.185 624.053 139.657 621.892 137.148 619.711L137.804 618.957C137.302 618.521 136.802 618.084 136.301 617.646L135.643 618.399C133.139 616.207 130.654 613.997 128.189 611.767L128.86 611.025C128.367 610.58 127.876 610.134 127.385 609.687L126.712 610.426C124.254 608.188 121.816 605.93 119.398 603.653L120.084 602.925C119.861 602.715 119.638 602.505 119.415 602.295C119.155 602.049 118.894 601.802 118.634 601.556L117.946 602.281C115.53 599.991 113.134 597.682 110.759 595.354L111.459 594.64C110.985 594.175 110.511 593.71 110.039 593.243L109.336 593.955C106.969 591.62 104.623 589.266 102.298 586.893L103.012 586.193C102.548 585.72 102.085 585.245 101.622 584.77L100.906 585.468C98.5834 583.083 96.2823 580.679 94.0027 578.257L94.7309 577.572C94.2755 577.088 93.8211 576.604 93.3675 576.119L92.637 576.802C90.3653 574.372 88.115 571.924 85.8865 569.458L86.6284 568.788C86.4161 568.553 86.2039 568.318 85.992 568.082C85.7598 567.825 85.5279 567.567 85.2962 567.309L84.552 567.977C82.3301 565.501 80.13 563.008 77.9521 560.498L78.7075 559.842C78.2721 559.341 77.8376 558.838 77.404 558.335L76.6464 558.987C74.4747 556.467 72.3251 553.928 70.1982 551.373L70.9668 550.733C70.5421 550.223 70.1184 549.712 69.6955 549.2L68.9247 549.837C66.8068 547.275 64.7115 544.695 62.639 542.098L63.4206 541.475C63.0061 540.955 62.5926 540.435 62.1799 539.915L61.3962 540.536C59.3294 537.928 57.2855 535.303 55.265 532.661L56.0593 532.054C55.6559 531.526 55.2534 530.998 54.8519 530.469L54.0555 531.074C52.0443 528.426 50.0564 525.761 48.0922 523.08L48.8989 522.489C48.5067 521.953 48.1155 521.417 47.7252 520.881L46.9165 521.469C44.96 518.779 43.0272 516.072 41.1184 513.349L41.9372 512.775C41.556 512.231 41.1758 511.687 40.7965 511.142L39.9757 511.713C38.076 508.983 36.2004 506.237 34.3491 503.475L35.1798 502.919C34.9495 502.575 34.7196 502.231 34.4901 501.887C34.3512 501.679 34.2125 501.471 34.0739 501.262L33.2413 501.816C31.3995 499.048 29.582 496.263 27.7893 493.464L28.6315 492.924C28.4776 492.684 28.3238 492.443 28.1702 492.203C27.9666 491.884 27.7633 491.564 27.5603 491.245L26.7163 491.781C24.9328 488.974 23.1741 486.151 21.4405 483.314L22.2939 482.792C21.9478 482.226 21.6026 481.659 21.2585 481.091L20.4034 481.609C18.6798 478.766 16.9813 475.907 15.3083 473.033L16.1725 472.53C15.8385 471.956 15.5055 471.382 15.1735 470.807L14.3075 471.307C12.6449 468.428 11.0076 465.534 9.39616 462.625L10.2709 462.14C9.94917 461.56 9.62848 460.978 9.30882 460.397L8.43238 460.878C6.83121 457.964 5.25584 455.035 3.70655 452.092L4.59143 451.626C4.28212 451.038 3.97386 450.45 3.66664 449.861L2.78008 450.324C1.24215 447.377 -0.269691 444.416 -1.75515 441.441L-0.86047 440.994C-1.15694 440.4 -1.45235 439.806 -1.74671 439.211L-2.64299 439.654C-4.11742 436.675 -5.56544 433.681 -6.98675 430.674L-6.08265 430.247C-6.36639 429.646 -6.64907 429.045 -6.93068 428.444L-7.83633 428.868C-9.24639 425.857 -10.6297 422.832 -11.986 419.794L-11.0729 419.386C-11.3433 418.781 -11.6126 418.174 -11.8809 417.568L-12.7954 417.972C-14.1391 414.933 -15.4558 411.88 -16.7452 408.815L-15.8234 408.427C-16.0808 407.815 -16.3371 407.203 -16.5923 406.59L-17.5155 406.974C-18.7939 403.904 -20.045 400.821 -21.2685 397.725L-20.3385 397.358C-20.5828 396.74 -20.8259 396.121 -21.068 395.502L-21.9993 395.866C-23.2085 392.774 -24.3902 389.669 -25.5441 386.551L-24.6063 386.204C-24.8366 385.582 -25.0658 384.959 -25.2939 384.336L-26.233 384.68C-27.3757 381.558 -28.4905 378.424 -29.5772 375.278L-28.632 374.951C-28.8489 374.323 -29.0647 373.695 -29.2794 373.066L-30.2258 373.389C-31.2991 370.244 -32.3443 367.088 -33.3611 363.921L-32.4089 363.615C-32.6116 362.984 -32.8131 362.352 -33.0135 361.72L-33.9667 362.022C-34.9704 358.855 -35.9459 355.677 -36.8927 352.488L-35.934 352.203C-36.1231 351.566 -36.3109 350.929 -36.4977 350.292L-37.4573 350.573C-38.3924 347.38 -39.2988 344.177 -40.1763 340.962L-39.2116 340.699C-39.3859 340.06 -39.5592 339.421 -39.7313 338.781L-40.697 339.041C-41.559 335.836 -42.3924 332.621 -43.1969 329.396L-42.2266 329.154C-42.3872 328.51 -42.5466 327.865 -42.7049 327.221L-43.676 327.459C-44.4689 324.229 -45.2327 320.989 -45.9672 317.739L-44.9918 317.519C-45.1384 316.87 -45.2839 316.22 -45.4282 315.571L-46.4044 315.788C-47.1236 312.549 -47.8138 309.301 -48.4747 306.043L-47.4946 305.844C-47.6264 305.194 -47.757 304.544 -47.8864 303.894L-48.8672 304.089C-49.5155 300.831 -50.1346 297.563 -50.724 294.286L-49.7398 294.109C-49.8575 293.455 -49.974 292.8 -50.0893 292.145L-51.0742 292.319C-51.6504 289.045 -52.1972 285.763 -52.7142 282.471L-51.7263 282.316C-51.829 281.662 -51.9306 281.008 -52.0309 280.353L-53.0193 280.505C-53.5219 277.226 -53.995 273.939 -54.4384 270.643L-53.4473 270.509C-53.5358 269.851 -53.6231 269.193 -53.7092 268.534L-54.7008 268.664C-55.1322 265.364 -55.5338 262.056 -55.9053 258.739L-54.9115 258.628C-54.9856 257.966 -55.0586 257.304 -55.1303 256.641L-56.1245 256.749C-56.4808 253.458 -56.8075 250.159 -57.1044 246.852L-56.1084 246.762C-56.1676 246.102 -56.2257 245.441 -56.2826 244.781L-57.2789 244.866C-57.5638 241.556 -57.8187 238.238 -58.0435 234.912L-57.0458 234.845C-57.0907 234.181 -57.1344 233.516 -57.1768 232.852L-58.1748 232.916C-58.3865 229.603 -58.5683 226.282 -58.7199 222.954L-57.7209 222.909C-57.751 222.248 -57.78 221.587 -57.8077 220.926L-58.8068 220.968C-58.9456 217.655 -59.0545 214.335 -59.1333 211.009L-58.1336 210.985C-58.1493 210.321 -58.1639 209.657 -58.1772 208.992L-59.177 209.012C-59.2437 205.682 -59.2802 202.346 -59.2863 199.003L-58.2863 199.001C-58.2869 198.668 -58.2872 198.334 -58.2872 198C-58.2872 197.666 -58.2869 197.332 -58.2863 196.999L-59.2863 196.997C-59.2802 193.654 -59.2437 190.317 -59.177 186.988L-58.1772 187.008C-58.1639 186.343 -58.1493 185.679 -58.1336 185.015L-59.1333 184.991C-59.0545 181.664 -58.9456 178.345 -58.8068 175.032L-57.8077 175.074C-57.7799 174.413 -57.751 173.752 -57.7209 173.091L-58.7199 173.046C-58.5683 169.718 -58.3865 166.397 -58.1748 163.084L-57.1768 163.148C-57.1344 162.484 -57.0907 161.819 -57.0458 161.155L-58.0435 161.088C-57.8187 157.762 -57.5638 154.444 -57.2789 151.134L-56.2826 151.219C-56.2257 150.559 -56.1676 149.898 -56.1084 149.238L-57.1044 149.148C-56.8075 145.841 -56.4808 142.542 -56.1245 139.251L-55.1303 139.359C-55.0586 138.696 -54.9856 138.034 -54.9115 137.372L-55.9053 137.261C-55.5338 133.944 -55.1322 130.636 -54.7008 127.336L-53.7092 127.466C-53.6231 126.807 -53.5358 126.149 -53.4473 125.491L-54.4384 125.357C-53.995 122.061 -53.5219 118.774 -53.0193 115.495L-52.0309 115.647C-51.9305 114.992 -51.829 114.338 -51.7263 113.684L-52.7142 113.529C-52.1972 110.237 -51.6504 106.955 -51.0742 103.681L-50.0893 103.855C-49.974 103.2 -49.8575 102.545 -49.7398 101.891L-50.724 101.714C-50.1346 98.4368 -49.5155 95.169 -48.8672 91.9109L-47.8864 92.1061C-47.757 91.4557 -47.6264 90.8057 -47.4946 90.156L-48.4747 89.9572C-47.8138 86.6991 -47.1236 83.4508 -46.4044 80.2124L-45.4282 80.4292C-45.2839 79.7796 -45.1384 79.1304 -44.9918 78.4815L-45.9672 78.2611C-45.2327 75.0108 -44.4689 71.7707 -43.676 68.541L-42.7049 68.7794C-42.5466 68.1346 -42.3872 67.4903 -42.2266 66.8464L-43.1969 66.6044C-42.3925 63.3789 -41.5591 60.1638 -40.697 56.9594L-39.7313 57.2192C-39.5592 56.5795 -39.386 55.9402 -39.2116 55.3013L-40.1763 55.038C-39.2988 51.8235 -38.3924 48.6198 -37.4574 45.4272L-36.4977 45.7083C-36.3109 45.0707 -36.1231 44.4336 -35.934 43.7969L-36.8927 43.5123C-35.9459 40.3229 -34.9705 37.1448 -33.9667 33.9781L-33.0135 34.2802C-32.8131 33.648 -32.6116 33.0163 -32.4089 32.385L-33.3611 32.0794C-32.3443 28.9117 -31.2991 25.7556 -30.2258 22.6112L-29.2794 22.9342C-29.0647 22.3052 -28.8489 21.6767 -28.632 21.0487L-29.5772 20.7222C-28.4905 17.5763 -27.3757 14.4422 -26.233 11.3203L-25.2939 11.664C-25.0658 11.0408 -24.8366 10.4181 -24.6063 9.79581L-25.5441 9.44867C-24.3902 6.33145 -23.2085 3.22641 -21.9993 0.13382L-21.068 0.497986C-20.8259 -0.121033 -20.5828 -0.739563 -20.3385 -1.35757L-21.2685 -1.72513C-20.0451 -4.82089 -18.7939 -7.90408 -17.5155 -10.9745L-16.5923 -10.5901C-16.3371 -11.203 -16.0808 -11.8155 -15.8234 -12.4274L-16.7452 -12.8151C-15.4558 -15.8803 -14.1391 -18.9327 -12.7955 -21.9719L-11.8809 -21.5675C-11.6126 -22.1743 -11.3433 -22.7805 -11.0729 -23.3862L-11.986 -23.7938C-10.6297 -26.8319 -9.2464 -29.8568 -7.83633 -32.8681L-6.93069 -32.444C-6.64909 -33.0454 -6.36641 -33.6463 -6.08266 -34.2466L-6.98676 -34.674C-5.56544 -37.6811 -4.11743 -40.6746 -2.64298 -43.6544L-1.74671 -43.2109C-1.45235 -43.8057 -1.15694 -44.4001 -0.860481 -44.9938L-1.75516 -45.4405C-0.269703 -48.4156 1.24214 -51.3768 2.78008 -54.3239L3.66663 -53.8613C3.97384 -54.45 4.2821 -55.0381 4.59139 -55.6257L3.70651 -56.0915C5.25581 -59.0346 6.83118 -61.9636 8.43235 -64.878L9.30879 -64.3965C9.62845 -64.9783 9.94913 -65.5596 10.2708 -66.1403L9.39613 -66.6249C11.0076 -69.5335 12.6448 -72.4276 14.3075 -75.3069L15.1735 -74.8068C15.5054 -75.3817 15.8384 -75.956 16.1724 -76.5297L15.3082 -77.0328C16.9812 -79.9066 18.6797 -82.7655 20.4033 -85.6092L21.2585 -85.0909C21.6026 -85.6587 21.9477 -86.2258 22.2938 -86.7923L21.4405 -87.3137C23.1741 -90.1514 24.9328 -92.9739 26.7162 -95.781L27.5603 -95.2447C27.9163 -95.8051 28.2734 -96.365 28.6314 -96.9241L27.7893 -97.4633C29.582 -100.263 31.3994 -103.048 33.2412 -105.816L34.0738 -105.262C34.4415 -105.815 34.8101 -106.367 35.1797 -106.918L34.349 -107.475C36.2003 -110.237 38.0759 -112.983 39.9756 -115.713L40.7964 -115.142C41.1757 -115.687 41.5559 -116.231 41.9371 -116.775L41.1183 -117.349C43.0271 -120.072 44.9598 -122.778 46.9163 -125.469L47.7251 -124.88C48.1153 -125.417 48.5066 -125.953 48.8987 -126.488L48.092 -127.079C50.0563 -129.761 52.0441 -132.426 54.0553 -135.074L54.8517 -134.469C55.2533 -134.998 55.6557 -135.526 56.0591 -136.053L55.2648 -136.661C57.2854 -139.303 59.3292 -141.928 61.3961 -144.536L62.1798 -143.914C62.5924 -144.435 63.0059 -144.955 63.4204 -145.474L62.6388 -146.098C64.7113 -148.695 66.8066 -151.275 68.9245 -153.837L69.6953 -153.2C70.1182 -153.712 70.5419 -154.222 70.9666 -154.733L70.198 -155.372C72.3249 -157.928 74.4744 -160.466 76.6462 -162.987L77.4038 -162.334C77.8374 -162.838 78.2719 -163.34 78.7073 -163.842L77.9519 -164.497C80.1298 -167.008 82.3298 -169.501 84.5518 -171.976L85.2959 -171.308C85.7391 -171.802 86.1832 -172.295 86.6281 -172.787L85.8862 -173.458C88.1147 -175.924 90.365 -178.371 92.6368 -180.801L93.3672 -180.118C93.8208 -180.603 94.2753 -181.088 94.7306 -181.572L94.0024 -182.257C96.282 -184.679 98.5831 -187.082 100.905 -189.468L101.622 -188.77C102.084 -189.245 102.548 -189.719 103.012 -190.193L102.298 -190.893C104.623 -193.265 106.969 -195.619 109.336 -197.955L110.038 -197.243C110.511 -197.709 110.984 -198.175 111.459 -198.64L110.759 -199.354C113.134 -201.682 115.529 -203.991 117.946 -206.281L118.634 -205.555C119.116 -206.013 119.599 -206.469 120.083 -206.925L119.398 -207.653C121.816 -209.93 124.254 -212.187 126.712 -214.426L127.385 -213.687C127.876 -214.133 128.367 -214.579 128.859 -215.025L128.188 -215.766C130.653 -217.996 133.138 -220.207 135.643 -222.399L136.301 -221.646C136.801 -222.084 137.302 -222.52 137.804 -222.956L137.148 -223.711C139.656 -225.892 142.185 -228.053 144.732 -230.194L145.376 -229.429C145.883 -229.856 146.392 -230.281 146.901 -230.707L146.26 -231.474C148.81 -233.603 151.378 -235.713 153.966 -237.803L154.594 -237.025C155.111 -237.442 155.629 -237.858 156.147 -238.274L155.521 -239.054C158.116 -241.136 160.73 -243.197 163.363 -245.239L163.976 -244.449C164.5 -244.855 165.025 -245.261 165.551 -245.666L164.941 -246.458C167.57 -248.484 170.218 -250.489 172.884 -252.475L173.482 -251.672C174.014 -252.069 174.547 -252.464 175.081 -252.859L174.486 -253.663C177.159 -255.64 179.851 -257.597 182.559 -259.533L183.141 -258.719C183.682 -259.106 184.223 -259.491 184.766 -259.876L184.187 -260.692C186.896 -262.614 189.622 -264.516 192.365 -266.397L192.931 -265.572C193.478 -265.947 194.025 -266.322 194.574 -266.695L194.011 -267.521C196.757 -269.391 199.521 -271.24 202.301 -273.068L202.85 -272.233C203.405 -272.598 203.961 -272.962 204.518 -273.325L203.971 -274.163C206.756 -275.981 209.558 -277.778 212.377 -279.554L212.91 -278.708C213.471 -279.061 214.032 -279.413 214.594 -279.765L214.064 -280.613C216.878 -282.373 219.708 -284.112 222.555 -285.83L223.072 -284.974C223.64 -285.317 224.209 -285.659 224.779 -286L224.265 -286.858C227.118 -288.567 229.987 -290.255 232.872 -291.92L233.372 -291.054C233.948 -291.387 234.525 -291.719 235.102 -292.05L234.605 -292.917C237.485 -294.568 240.38 -296.196 243.29 -297.803L243.773 -296.927C244.354 -297.248 244.935 -297.568 245.517 -297.886L245.037 -298.763C247.951 -300.36 250.88 -301.935 253.825 -303.488L254.291 -302.603C254.879 -302.913 255.468 -303.222 256.057 -303.53L255.593 -304.416C258.539 -305.958 261.499 -307.477 264.475 -308.974L264.924 -308.08C265.516 -308.378 266.108 -308.675 266.701 -308.971L266.255 -309.866C269.225 -311.348 272.209 -312.808 275.208 -314.246L275.641 -313.344C276.239 -313.631 276.839 -313.917 277.439 -314.202L277.009 -315.106C280.014 -316.534 283.032 -317.94 286.065 -319.324L286.48 -318.414C287.086 -318.69 287.692 -318.966 288.299 -319.24L287.886 -320.151C290.908 -321.518 293.943 -322.862 296.991 -324.183L297.389 -323.266C297.998 -323.529 298.607 -323.792 299.216 -324.054L298.822 -324.973C301.875 -326.285 304.942 -327.574 308.022 -328.84L308.402 -327.915C309.017 -328.168 309.633 -328.42 310.249 -328.671L309.871 -329.597C312.949 -330.851 316.039 -332.081 319.143 -333.289L319.505 -332.357C320.123 -332.597 320.741 -332.836 321.359 -333.075L320.999 -334.008C324.096 -335.201 327.206 -336.372 330.328 -337.52L330.673 -336.581C331.296 -336.81 331.92 -337.038 332.545 -337.265L332.203 -338.205C335.33 -339.343 338.469 -340.458 341.621 -341.549L341.948 -340.604C342.577 -340.822 343.206 -341.039 343.835 -341.254L343.511 -342.2C346.646 -343.275 349.793 -344.326 352.952 -345.353L353.261 -344.402C353.892 -344.608 354.523 -344.812 355.155 -345.015L354.849 -345.967C358.012 -346.985 361.187 -347.98 364.374 -348.951L364.665 -347.994C365.302 -348.188 365.938 -348.381 366.575 -348.573L366.287 -349.53C369.468 -350.488 372.66 -351.423 375.864 -352.334L376.137 -351.372C376.774 -351.553 377.412 -351.733 378.05 -351.912L377.779 -352.875C380.973 -353.772 384.179 -354.646 387.395 -355.496L387.65 -354.529C388.292 -354.698 388.935 -354.867 389.578 -355.035L389.326 -356.002C392.546 -356.843 395.777 -357.659 399.018 -358.45L399.256 -357.479C399.903 -357.637 400.55 -357.794 401.198 -357.95L400.964 -358.922C404.183 -359.698 407.413 -360.45 410.653 -361.178L410.872 -360.203C411.52 -360.348 412.167 -360.492 412.815 -360.636L412.598 -361.612C415.842 -362.33 419.096 -363.024 422.36 -363.694L422.561 -362.715C423.213 -362.848 423.865 -362.981 424.517 -363.113L424.319 -364.093C427.577 -364.751 430.843 -365.385 434.12 -365.994L434.302 -365.011C434.953 -365.132 435.604 -365.252 436.255 -365.371L436.076 -366.355C439.338 -366.951 442.609 -367.523 445.889 -368.071L446.054 -367.084C446.709 -367.194 447.364 -367.302 448.02 -367.409L447.858 -368.396C451.142 -368.934 454.435 -369.447 457.737 -369.936L457.883 -368.947C458.542 -369.044 459.202 -369.141 459.862 -369.236L459.719 -370.226C462.996 -370.701 466.282 -371.151 469.576 -371.577L469.705 -370.586C470.362 -370.67 471.019 -370.754 471.677 -370.837L471.552 -371.83C474.847 -372.245 478.149 -372.637 481.46 -373.003L481.57 -372.009C482.231 -372.082 482.893 -372.154 483.555 -372.226L483.448 -373.22C486.755 -373.576 490.071 -373.907 493.394 -374.213L493.486 -373.218C494.144 -373.278 494.803 -373.338 495.461 -373.397L495.373 -374.393C498.672 -374.687 501.979 -374.956 505.293 -375.201L505.367 -374.204C506.029 -374.253 506.691 -374.301 507.354 -374.348L507.283 -375.345C510.6 -375.58 513.925 -375.791 517.257 -375.976L517.312 -374.978C517.978 -375.015 518.643 -375.051 519.309 -375.086L519.257 -376.084C522.567 -376.258 525.885 -376.408 529.209 -376.533L529.247 -375.533C529.908 -375.558 530.57 -375.582 531.232 -375.605L531.197 -376.604C534.512 -376.719 537.834 -376.808 541.162 -376.873L541.181 -375.873C541.846 -375.886 542.511 -375.898 543.176 -375.909L543.159 -376.909C546.49 -376.964 549.827 -376.994 553.171 -376.999L553.172 -375.999C553.506 -376 553.84 -376 554.174 -376C554.508 -376 554.842 -376 555.176 -375.999L555.177 -376.999C558.521 -376.994 561.858 -376.964 565.188 -376.909L565.172 -375.909C565.837 -375.898 566.502 -375.886 567.167 -375.873L567.186 -376.873C570.514 -376.808 573.836 -376.719 577.151 -376.604L577.116 -375.605C577.778 -375.582 578.44 -375.558 579.101 -375.533L579.139 -376.533C582.463 -376.408 585.781 -376.258 589.091 -376.084L589.039 -375.086C589.704 -375.051 590.37 -375.015 591.036 -374.978L591.091 -375.976C594.423 -375.791 597.748 -375.58 601.065 -375.345L600.994 -374.348C601.657 -374.301 602.319 -374.253 602.981 -374.204L603.054 -375.201C606.369 -374.956 609.676 -374.687 612.975 -374.393L612.886 -373.397C613.545 -373.338 614.204 -373.278 614.862 -373.218L614.954 -374.213C618.277 -373.907 621.593 -373.576 624.9 -373.22L624.793 -372.226C625.455 -372.154 626.117 -372.082 626.778 -372.009L626.888 -373.003C630.199 -372.636 633.501 -372.245 636.796 -371.83L636.671 -370.837C637.329 -370.754 637.986 -370.67 638.643 -370.585L638.771 -371.577C642.066 -371.151 645.352 -370.701 648.629 -370.226L648.486 -369.236C649.146 -369.141 649.806 -369.044 650.465 -368.947L650.611 -369.936C653.913 -369.447 657.206 -368.934 660.49 -368.396L660.328 -367.409C660.984 -367.302 661.639 -367.194 662.294 -367.084L662.459 -368.071C665.739 -367.523 669.01 -366.951 672.272 -366.355L672.092 -365.371C672.744 -365.252 673.395 -365.132 674.046 -365.011L674.228 -365.994C677.505 -365.385 680.771 -364.751 684.029 -364.093L683.831 -363.113C684.483 -362.981 685.135 -362.848 685.787 -362.715L685.988 -363.694C689.252 -363.024 692.505 -362.33 695.749 -361.612L695.533 -360.636C696.181 -360.492 696.828 -360.348 697.475 -360.203L697.695 -361.178C700.935 -360.45 704.165 -359.698 707.384 -358.922L707.15 -357.95C707.798 -357.794 708.445 -357.637 709.092 -357.479L709.329 -358.45C712.571 -357.659 715.802 -356.842 719.022 -356.002L718.77 -355.035C719.413 -354.867 720.055 -354.698 720.698 -354.529L720.953 -355.496C724.169 -354.646 727.374 -353.772 730.569 -352.875L730.298 -351.912C730.936 -351.733 731.574 -351.553 732.211 -351.372L732.484 -352.334C735.687 -351.423 738.88 -350.488 742.061 -349.53L741.772 -348.573C742.41 -348.381 743.046 -348.188 743.683 -347.994L743.974 -348.951C747.161 -347.98 750.336 -346.985 753.499 -345.967L753.193 -345.015C753.825 -344.812 754.456 -344.608 755.086 -344.402L755.396 -345.353C758.555 -344.326 761.702 -343.275 764.837 -342.2L764.512 -341.254C765.142 -341.039 765.771 -340.822 766.4 -340.604L766.727 -341.549C769.879 -340.458 773.018 -339.343 776.145 -338.205L775.803 -337.265C776.428 -337.038 777.052 -336.81 777.675 -336.581L778.02 -337.52C781.142 -336.372 784.252 -335.201 787.349 -334.008L786.989 -333.075C787.607 -332.836 788.225 -332.597 788.843 -332.357L789.205 -333.289C792.309 -332.081 795.399 -330.85 798.477 -329.597L798.099 -328.671C798.715 -328.42 799.331 -328.168 799.946 -327.915L800.326 -328.84C803.406 -327.574 806.473 -326.285 809.526 -324.973L809.131 -324.054C809.741 -323.792 810.35 -323.529 810.959 -323.266L811.357 -324.183C814.405 -322.862 817.44 -321.518 820.461 -320.151L820.049 -319.24C820.656 -318.966 821.262 -318.69 821.868 -318.414L822.283 -319.324C825.315 -317.94 828.334 -316.534 831.339 -315.106L830.909 -314.202C831.509 -313.917 832.108 -313.631 832.707 -313.344L833.14 -314.246C836.138 -312.808 839.123 -311.348 842.093 -309.866L841.646 -308.971C842.239 -308.675 842.832 -308.378 843.424 -308.08L843.873 -308.974C846.848 -307.477 849.809 -305.958 852.755 -304.416L852.291 -303.53C852.88 -303.222 853.469 -302.913 854.057 -302.603L854.523 -303.488C857.467 -301.935 860.397 -300.36 863.311 -298.764L862.831 -297.887C863.412 -297.568 863.994 -297.248 864.574 -296.928L865.058 -297.803C867.968 -296.196 870.863 -294.568 873.742 -292.917L873.245 -292.05L873.78 -291.743C874.179 -291.514 874.577 -291.284 874.975 -291.054L875.475 -291.92C878.36 -290.255 881.23 -288.567 884.083 -286.858L883.569 -286C884.139 -285.659 884.708 -285.317 885.276 -284.974L885.793 -285.83C888.639 -284.112 891.47 -282.373 894.284 -280.613L893.754 -279.765C894.316 -279.413 894.877 -279.061 895.438 -278.708L895.971 -279.554C898.789 -277.778 901.591 -275.981 904.377 -274.163L903.83 -273.325C904.386 -272.962 904.942 -272.598 905.497 -272.233L906.047 -273.068C908.827 -271.24 911.59 -269.391 914.337 -267.522L913.774 -266.695C914.322 -266.322 914.87 -265.948 915.417 -265.573L915.982 -266.397C918.726 -264.516 921.452 -262.614 924.161 -260.692L923.582 -259.876C924.124 -259.492 924.666 -259.106 925.207 -258.719L925.788 -259.533C928.497 -257.597 931.188 -255.64 933.861 -253.663L933.267 -252.859C933.8 -252.465 934.334 -252.069 934.866 -251.673L935.463 -252.475C938.129 -250.49 940.777 -248.484 943.407 -246.459L942.797 -245.666C943.322 -245.261 943.847 -244.855 944.372 -244.449L944.985 -245.239C947.617 -243.198 950.231 -241.136 952.826 -239.054L952.201 -238.274C952.719 -237.859 953.236 -237.442 953.753 -237.025L954.381 -237.803C956.969 -235.713 959.538 -233.604 962.088 -231.475L961.447 -230.707C961.956 -230.282 962.464 -229.856 962.972 -229.429L963.615 -230.195C966.163 -228.053 968.691 -225.892 971.2 -223.711L970.544 -222.957C971.045 -222.521 971.546 -222.084 972.046 -221.646L972.705 -222.399C975.209 -220.207 977.694 -217.997 980.159 -215.767L979.488 -215.025C979.98 -214.58 980.472 -214.134 980.962 -213.687L981.636 -214.426C984.094 -212.188 986.532 -209.93 988.95 -207.653L988.264 -206.925C988.748 -206.469 989.231 -206.013 989.714 -205.556L990.402 -206.281C992.818 -203.991 995.214 -201.682 997.589 -199.354L996.889 -198.64C997.057 -198.475 997.225 -198.31 997.393 -198.145C997.699 -197.845 998.004 -197.544 998.309 -197.243L999.011 -197.955C1001.38 -195.62 1003.72 -193.266 1006.05 -190.893L1005.34 -190.193C1005.8 -189.72 1006.26 -189.245 1006.73 -188.77L1007.44 -189.468C1009.76 -187.083 1012.07 -184.679 1014.35 -182.257L1013.62 -181.572C1014.07 -181.088 1014.53 -180.604 1014.98 -180.119L1015.71 -180.802C1017.98 -178.372 1020.23 -175.924 1022.46 -173.458L1021.72 -172.788C1022.16 -172.295 1022.61 -171.802 1023.05 -171.309L1023.8 -171.977C1026.02 -169.501 1028.22 -167.008 1030.4 -164.498L1029.64 -163.842C1030.08 -163.341 1030.51 -162.838 1030.94 -162.335L1031.7 -162.987C1033.87 -160.467 1036.02 -157.928 1038.15 -155.373L1037.38 -154.733C1037.81 -154.223 1038.23 -153.712 1038.65 -153.2L1039.42 -153.837C1041.54 -151.275 1043.64 -148.695 1045.71 -146.098L1044.93 -145.475C1045.34 -144.955 1045.76 -144.435 1046.17 -143.915L1046.95 -144.536C1049.02 -141.928 1051.06 -139.303 1053.08 -136.661L1052.29 -136.054C1052.69 -135.526 1053.09 -134.998 1053.5 -134.469L1054.29 -135.074C1056.3 -132.426 1058.29 -129.761 1060.26 -127.08L1059.45 -126.489C1059.84 -125.953 1060.23 -125.417 1060.62 -124.881L1061.43 -125.469C1063.39 -122.779 1065.32 -120.072 1067.23 -117.349L1066.41 -116.775C1066.79 -116.231 1067.17 -115.687 1067.55 -115.142L1068.37 -115.713C1070.27 -112.983 1072.15 -110.237 1074 -107.475L1073.17 -106.919C1073.54 -106.367 1073.91 -105.815 1074.27 -105.262L1075.11 -105.816C1076.95 -103.048 1078.77 -100.263 1080.56 -97.4635L1079.72 -96.9243C1080.07 -96.3651 1080.43 -95.8052 1080.79 -95.2448L1081.63 -95.7811C1083.41 -92.974 1085.17 -90.1515 1086.91 -87.3138L1086.05 -86.7924C1086.4 -86.2259 1086.75 -85.6588 1087.09 -85.091L1087.94 -85.6093C1089.67 -82.7656 1091.37 -79.9066 1093.04 -77.0329L1092.18 -76.5298C1092.51 -75.9561 1092.84 -75.3818 1093.17 -74.8069L1094.04 -75.307C1095.7 -72.4277 1097.34 -69.5336 1098.95 -66.625L1098.08 -66.1404C1098.4 -65.5597 1098.72 -64.9784 1099.04 -64.3965L1099.92 -64.878C1101.52 -61.9636 1103.09 -59.0347 1104.64 -56.0916L1103.76 -55.6257C1104.07 -55.0381 1104.37 -54.45 1104.68 -53.8613L1105.57 -54.3239C1107.11 -51.3769 1108.62 -48.4156 1110.1 -45.4406L1109.21 -44.9938C1109.5 -44.4001 1109.8 -43.8058 1110.09 -43.2109L1110.99 -43.6544C1112.47 -40.6747 1113.91 -37.6811 1115.33 -34.674L1114.43 -34.2467C1114.71 -33.6464 1115 -33.0455 1115.28 -32.4441L1116.18 -32.8681C1117.59 -29.8568 1118.98 -26.8319 1120.33 -23.7939L1119.42 -23.3862C1119.69 -22.7805 1119.96 -22.1743 1120.23 -21.5676L1121.14 -21.9719C1122.49 -18.9327 1123.8 -15.8804 1125.09 -12.8152L1124.17 -12.4274C1124.43 -11.8155 1124.68 -11.203 1124.94 -10.5901L1125.86 -10.9745C1127.14 -7.90414 1128.39 -4.82092 1129.62 -1.72516L1128.69 -1.3576C1128.93 -0.739594 1129.17 -0.121063 1129.42 0.497955L1130.35 0.13382C1131.56 3.22638 1132.74 6.33139 1133.89 9.44861L1132.95 9.79575C1133.18 10.418 1133.41 11.0408 1133.64 11.664L1134.58 11.3203C1135.72 14.4422 1136.84 17.5763 1137.92 20.7222L1136.98 21.0487C1137.2 21.6767 1137.41 22.3052 1137.63 22.9342L1138.57 22.6111C1139.65 25.7555 1140.69 28.9117 1141.71 32.0793L1140.76 32.385C1140.96 33.0162 1141.16 33.6479 1141.36 34.2802L1142.31 33.978C1143.32 37.1447 1144.29 40.3229 1145.24 43.5122L1144.28 43.7968C1144.47 44.4335 1144.66 45.0706 1144.85 45.7082L1145.81 45.4272C1146.74 48.6198 1147.65 51.8234 1148.52 55.038L1147.56 55.3013C1147.73 55.9401 1147.91 56.5794 1148.08 57.2191L1149.04 56.9593C1149.91 60.1637 1150.74 63.3788 1151.54 66.6044L1150.57 66.8463C1150.73 67.4903 1150.89 68.1346 1151.05 68.7794L1152.02 68.541C1152.82 71.7707 1153.58 75.0108 1154.31 78.261L1153.34 78.4814C1153.49 79.1303 1153.63 79.7795 1153.78 80.4292L1154.75 80.2124C1155.47 83.4507 1156.16 86.6991 1156.82 89.9572L1155.84 90.156C1155.97 90.8056 1156.1 91.4557 1156.23 92.1061L1157.21 91.9109C1157.86 95.169 1158.48 98.4368 1159.07 101.714L1158.09 101.891C1158.16 102.266 1158.22 102.642 1158.29 103.017C1158.34 103.296 1158.39 103.576 1158.44 103.855L1159.42 103.681C1160 106.955 1160.55 110.237 1161.06 113.529L1160.07 113.684C1160.18 114.338 1160.28 114.992 1160.38 115.647L1161.37 115.495C1161.87 118.774 1162.34 122.061 1162.79 125.357L1161.8 125.491C1161.88 126.149 1161.97 126.807 1162.06 127.466L1163.05 127.336C1163.48 130.636 1163.88 133.944 1164.25 137.261L1163.26 137.372C1163.33 138.034 1163.41 138.696 1163.48 139.359L1164.47 139.251C1164.83 142.542 1165.16 145.841 1165.45 149.148L1164.46 149.238C1164.52 149.898 1164.57 150.559 1164.63 151.219L1165.63 151.134C1165.91 154.444 1166.17 157.762 1166.39 161.088L1165.39 161.155C1165.44 161.819 1165.48 162.484 1165.52 163.148L1166.52 163.084C1166.73 166.397 1166.92 169.718 1167.07 173.046L1166.07 173.091C1166.1 173.752 1166.13 174.413 1166.16 175.074L1167.15 175.032C1167.29 178.345 1167.4 181.665 1167.48 184.991L1166.48 185.015C1166.5 185.679 1166.51 186.343 1166.52 187.008L1167.52 186.988Z" stroke="#4CC6FF" stroke-width="2" stroke-dasharray="2 10"/>
<ellipse cx="495.647" cy="242.5" rx="591.988" ry="586.5" stroke="url(#paint0_linear)" stroke-width="0.673541"/>
<circle opacity="0.1" cx="123.499" cy="604.057" r="71.0565" stroke="url(#paint1_linear)" stroke-width="0.862801"/>
<rect x="99.4992" y="580.057" width="48" height="48" rx="24" fill="white"/>
<path fill-rule="evenodd" clip-rule="evenodd" d="M118.999 598.057C118.999 595.533 120.975 593.557 123.499 593.557C126.023 593.557 127.999 595.533 127.999 598.057V602.056C126.746 601.114 125.188 600.557 123.499 600.557C121.811 600.557 120.253 601.114 118.999 602.056V598.057ZM117.999 602.957V598.057C117.999 594.98 120.423 592.557 123.499 592.557C126.575 592.557 128.999 594.98 128.999 598.057V602.957C130.24 604.296 130.999 606.087 130.999 608.057C130.999 612.199 127.641 615.557 123.499 615.557C119.357 615.557 115.999 612.199 115.999 608.057C115.999 606.087 116.758 604.296 117.999 602.957ZM116.999 608.057C116.999 604.467 119.909 601.557 123.499 601.557C127.089 601.557 129.999 604.467 129.999 608.057C129.999 611.646 127.089 614.557 123.499 614.557C119.909 614.557 116.999 611.646 116.999 608.057ZM123.499 605.557C122.671 605.557 121.999 606.228 121.999 607.057C121.999 607.885 122.671 608.557 123.499 608.557C124.328 608.557 124.999 607.885 124.999 607.057C124.999 606.228 124.328 605.557 123.499 605.557ZM123.999 609.507C125.14 609.275 125.999 608.266 125.999 607.057C125.999 605.676 124.88 604.557 123.499 604.557C122.118 604.557 120.999 605.676 120.999 607.057C120.999 608.266 121.858 609.275 122.999 609.507V611.057V611.557H123.999V611.057V609.507Z" fill="#8C94A8"/>
<circle opacity="0.1" cx="1078.5" cy="138.028" r="104.5" stroke="url(#paint2_linear)" stroke-width="0.862801"/>
<rect x="1054.5" y="114.028" width="48" height="48" rx="24" fill="white"/>
<path fill-rule="evenodd" clip-rule="evenodd" d="M1088.7 127.788L1088.77 127.292L1089.76 127.427L1089.7 127.922L1088.9 133.822L1088.83 134.317L1088.33 134.251L1082.33 133.451L1081.84 133.385L1081.97 132.393L1082.47 132.46L1087.48 133.129C1085.83 130.475 1082.86 128.755 1079.5 128.755C1074.28 128.755 1070 133.031 1070 138.255H1069C1069 132.479 1073.72 127.755 1079.5 127.755C1083.06 127.755 1086.23 129.503 1088.1 132.244L1088.7 127.788ZM1069.93 142.524L1070.15 142.973C1070.6 143.899 1071.18 144.743 1071.87 145.482L1072.22 145.847L1072.95 145.164L1072.61 144.798C1071.98 144.132 1071.45 143.371 1071.05 142.537L1070.83 142.087L1069.93 142.524ZM1075.88 148.121L1075.41 147.95L1075.75 147.01L1076.22 147.181C1077.17 147.528 1078.19 147.727 1079.26 147.752L1079.76 147.764L1079.74 148.764L1079.24 148.752C1078.06 148.724 1076.93 148.504 1075.88 148.121ZM1086.63 144.538L1086.28 144.895C1085.54 145.651 1084.67 146.285 1083.72 146.762L1083.27 146.985L1083.72 147.88L1084.16 147.656C1085.22 147.129 1086.17 146.429 1086.99 145.595L1087.34 145.238L1086.63 144.538ZM1089 138.255V137.755H1090V138.255C1090 139.349 1089.83 140.406 1089.52 141.4L1089.37 141.877L1088.41 141.575L1088.56 141.098C1088.85 140.2 1089 139.245 1089 138.255Z" fill="#8C94A8"/>
<defs>
<linearGradient id="paint0_linear" x1="655.726" y1="834.37" x2="-15.7619" y2="150.338" gradientUnits="userSpaceOnUse">
<stop offset="0.209515" stop-color="#D8B6F5"/>
<stop offset="0.464645" stop-color="#4CC6FF"/>
<stop offset="1" stop-color="#1188C1"/>
</linearGradient>
<linearGradient id="paint1_linear" x1="142.714" y1="675.764" x2="61.35" y2="593.649" gradientUnits="userSpaceOnUse">
<stop offset="0.209515" stop-color="#CEB3FB"/>
<stop offset="0.464645" stop-color="#4CC6FF"/>
<stop offset="1" stop-color="#4D6ADB"/>
</linearGradient>
<linearGradient id="paint2_linear" x1="1106.76" y1="243.485" x2="987.1" y2="122.722" gradientUnits="userSpaceOnUse">
<stop offset="0.209515" stop-color="#CEB3FB"/>
<stop offset="0.464645" stop-color="#4CC6FF"/>
<stop offset="1" stop-color="#4D6ADB"/>
</linearGradient>
</defs>
</svg>
